<svg width="100" height="100" viewBox="0 0 100 100" fill="none" xmlns="http://www.w3.org/2000/svg">
<rect x="6.10352e-05" width="100" height="100" rx="10" fill="url(#paint0_linear_189_299)"/>
<path d="M34.6995 67.677C34.1835 67.4152 33.6329 67.2249 33.0633 67.1115C32.3646 66.9527 31.7421 66.7866 31.1959 66.6085C30.6724 66.4003 30.196 66.0932 29.7941 65.7046C29.3921 65.316 29.0725 64.8537 28.8536 64.3441C28.3564 63.1365 28.1534 61.8322 28.2606 60.5346C28.4288 58.2636 28.8952 56.0232 29.6483 53.8687C30.5128 51.2592 31.5331 48.7015 32.7041 46.2089C33.9277 43.5795 35.2096 41.0639 36.5497 38.6623C37.8898 36.2606 39.1257 34.1253 40.2575 32.2563C41.3893 30.3856 42.2578 28.9971 42.863 28.0907C41.0268 28.2798 39.2032 28.5715 37.401 28.9642C35.6582 29.3097 33.964 29.8583 32.3547 30.5982C30.9572 31.2672 30.2306 32.1191 30.1748 33.1539C30.1223 34.1405 30.7013 35.1328 31.9119 36.1307C32.2957 36.4965 32.4802 36.8269 32.4654 37.1221C32.4704 37.3179 32.3979 37.5079 32.2632 37.6527C32.1284 37.7975 31.9418 37.8859 31.7421 37.8994C31.5175 37.947 31.2869 37.9608 31.0581 37.9403C30.0909 37.8675 29.1838 37.4526 28.5067 36.7732C27.6627 35.9671 27.0159 34.9849 26.6146 33.8999C26.1464 32.724 25.9417 31.4635 26.0143 30.2036C26.1127 28.3313 26.9402 26.5209 28.4968 24.7722C30.0534 23.0235 32.6877 21.9005 36.3996 21.4031C37.3181 21.2539 39.1175 21.1352 41.7977 21.047C44.4779 20.9587 47.3787 20.9948 50.5001 21.1553C53.1883 21.2854 55.8665 21.569 58.521 22.0047C61.088 22.4235 63.1965 23.0483 64.8466 23.8794C66.4967 24.7104 67.2849 25.8126 67.211 27.1859C67.1914 27.53 67.1446 27.9487 67.0684 28.4372C66.9921 28.9257 66.9453 29.3204 66.9306 29.6164V29.7632C66.9376 29.8414 66.917 29.9197 66.8722 29.9849C66.8274 30.0501 66.7612 30.0984 66.6845 30.1217C66.5295 30.1627 66.409 30.0832 66.3179 29.8811C66.0866 29.4752 65.3863 29.1182 64.2168 28.8102C62.7612 28.4567 61.281 28.209 59.7881 28.069C58.0002 27.8749 56.0729 27.7498 54.0061 27.6936C52.7021 29.4584 51.1857 31.6531 49.4569 34.2777C47.7281 36.9024 45.9721 39.7733 44.1892 42.8904C42.6277 45.6771 41.1654 48.5047 39.8023 51.3732C38.4393 54.2417 37.328 56.8768 36.4685 59.2785C35.6073 61.6849 35.1382 63.6245 35.0612 65.0973C35.0136 65.9829 35.1309 66.631 35.413 67.0417C35.4647 67.1042 35.5027 67.1763 35.5247 67.2537C35.5467 67.3311 35.5522 67.4121 35.5409 67.4917C35.5237 67.8455 35.2408 67.9177 34.6995 67.677Z" fill="white"/>
<path d="M48.6351 78.0247C45.6088 78.0247 43.4027 77.2482 42.0167 75.6952C40.6306 74.1423 39.9376 72.0831 39.9376 69.5178C39.9483 67.3859 40.2799 65.2672 40.9218 63.2298C41.5867 61.0119 42.3953 58.8376 43.3428 56.7203C44.4449 54.2144 45.6809 51.7668 47.0457 49.3878C48.4178 46.9851 49.9335 44.6636 51.5851 42.4355C53.0045 40.4757 54.6563 38.6873 56.5059 37.1076C57.969 35.8562 59.6465 34.8672 61.4611 34.1861C63.0823 33.552 64.8083 33.2127 66.5541 33.1851C69.477 33.1851 71.5569 33.8268 72.7936 35.1102C74.0268 36.3874 74.6929 38.0901 74.6463 39.8462C74.626 41.4231 74.2917 42.981 73.6622 44.4329C72.9805 46.0583 72.0793 47.5871 70.9828 48.9787C69.8788 50.4044 68.5665 51.6636 67.088 52.7159C65.6991 53.7195 64.0958 54.4023 62.3985 54.7133C62.1505 54.7661 61.897 54.7904 61.6432 54.7855C61.2889 54.7855 61.1117 54.6892 61.1117 54.4895C61.1449 54.2765 61.2517 54.0812 61.4143 53.936C61.6161 53.7146 61.8179 53.5052 62.0196 53.3079C62.4231 52.9132 63.0661 52.1857 63.9485 51.1252C64.831 50.0648 65.7512 48.8319 66.7091 47.4265C67.6079 46.1244 68.3922 44.7502 69.0539 43.3187C69.9626 41.4464 70.4161 39.8421 70.4145 38.5057C70.4145 37.126 69.9355 36.4362 68.9776 36.4362C68.2723 36.4362 67.3275 36.8918 66.1432 37.8031C64.959 38.7143 63.5606 40.2577 61.9483 42.4331C60.7378 44.0117 59.5896 45.6762 58.5037 47.4265C57.4179 49.1768 56.4723 50.8044 55.6669 52.3092C54.8599 53.8141 54.2292 55.0341 53.7748 55.9695C52.7868 58.277 51.9285 60.6356 51.2037 63.0348C50.4476 65.5263 50.0695 67.7331 50.0695 69.655C50.0695 71.1342 50.3467 72.3302 50.9011 73.2431C51.4555 74.1559 52.4134 74.6123 53.7748 74.6123C55.1871 74.6123 56.6248 74.107 58.0879 73.0963C59.6492 71.9931 61.0598 70.6992 62.2853 69.2459C63.6208 67.6936 64.8583 66.063 65.9907 64.3632C67.0161 62.8448 67.9629 61.277 68.8275 59.6658C69.1793 59.7163 69.6985 59.7669 70.3775 59.815C71.0566 59.8631 71.3986 60.3324 71.3986 61.2204C71.3632 61.8705 71.21 62.5094 70.9459 63.107C70.4929 64.1669 69.9617 65.1932 69.3565 66.1777C67.6646 68.8791 65.4608 71.2396 62.8635 73.1324C60.1423 75.1554 57.3949 76.5118 54.6212 77.2017C52.6716 77.7327 50.6588 78.0095 48.6351 78.0247Z" fill="white"/>
<defs>
<linearGradient id="paint0_linear_189_299" x1="50.0001" y1="0" x2="50.0001" y2="100" gradientUnits="userSpaceOnUse">
<stop stop-color="#FEBD8E"/>
<stop offset="1" stop-color="#EC9657"/>
</linearGradient>
</defs>
</svg>
