<svg width="60" height="71" viewBox="0 0 60 71" fill="none" xmlns="http://www.w3.org/2000/svg">
<path d="M10.7294 57.7749C10.093 57.452 9.41388 57.2172 8.71142 57.0774C7.84963 56.8815 7.0819 56.6767 6.40825 56.4571C5.76257 56.2003 5.17505 55.8214 4.67933 55.3422C4.18361 54.8629 3.78946 54.2927 3.51943 53.6642C2.90624 52.1748 2.65586 50.5663 2.78811 48.9659C2.99555 46.165 3.57076 43.4019 4.49956 40.7446C5.56578 37.5262 6.82421 34.3718 8.26838 31.2976C9.77753 28.0546 11.3585 24.9521 13.0113 21.99C14.6641 19.028 16.1884 16.3944 17.5842 14.0893C18.9801 11.7822 20.0513 10.0697 20.7978 8.95172C18.5331 9.18499 16.2839 9.5447 14.0612 10.0291C11.9118 10.4552 9.82227 11.1318 7.83749 12.0443C6.11391 12.8694 5.21773 13.9201 5.14895 15.1963C5.08421 16.4132 5.79833 17.637 7.29129 18.8677C7.76467 19.3188 7.99225 19.7264 7.97405 20.0905C7.98011 20.3319 7.89075 20.5663 7.72457 20.7449C7.55839 20.9234 7.32819 21.0324 7.08191 21.0492C6.80497 21.1078 6.5205 21.1248 6.23832 21.0996C5.04538 21.0098 3.92674 20.4981 3.09156 19.6602C2.05061 18.666 1.2529 17.4546 0.758046 16.1164C0.180546 14.6661 -0.0719465 13.1115 0.017632 11.5576C0.139011 9.24852 1.15962 7.01561 3.07943 4.85889C4.99924 2.70216 8.24816 1.31711 12.8262 0.703725C13.959 0.519711 16.1783 0.373292 19.4838 0.264467C22.7894 0.155641 26.367 0.20016 30.2168 0.398024C33.5323 0.558512 36.8354 0.908339 40.1092 1.44572C43.2752 1.96215 45.8757 2.73283 47.9108 3.75777C49.946 4.78271 50.918 6.14204 50.827 7.83576C50.8027 8.26018 50.745 8.77661 50.651 9.37911C50.5569 9.98161 50.4992 10.4684 50.481 10.8334V11.0145C50.4897 11.111 50.4643 11.2075 50.409 11.2879C50.3539 11.3684 50.2722 11.4279 50.1776 11.4567C49.9864 11.5071 49.8377 11.4092 49.7254 11.1599C49.4402 10.6593 48.5764 10.219 47.134 9.83915C45.3388 9.40314 43.5132 9.09759 41.6719 8.92501C39.4669 8.68559 37.0899 8.53126 34.5409 8.462C32.9326 10.6385 31.0624 13.3453 28.9302 16.5824C26.7979 19.8194 24.6323 23.3602 22.4333 27.2048C20.5074 30.6417 18.704 34.129 17.0229 37.6669C15.3418 41.2047 13.9712 44.4546 12.9111 47.4166C11.8491 50.3846 11.2705 52.7768 11.1754 54.5932C11.1168 55.6854 11.2614 56.4848 11.6093 56.9913C11.6731 57.0684 11.72 57.1574 11.7471 57.2528C11.7742 57.3483 11.7811 57.4482 11.7671 57.5463C11.7459 57.9826 11.3969 58.0717 10.7294 57.7749Z" fill="#7784EE"/>
<path d="M27.9166 70.5371C24.1842 70.5371 21.4633 69.5794 19.7539 67.6641C18.0445 65.7488 17.1898 63.2092 17.1898 60.0453C17.2029 57.4159 17.6119 54.8028 18.4036 52.29C19.2236 49.5546 20.2209 46.873 21.3895 44.2616C22.7488 41.171 24.2732 38.1524 25.9564 35.2182C27.6486 32.2549 29.518 29.3918 31.555 26.6437C33.3056 24.2267 35.3428 22.021 37.6239 20.0727C39.4284 18.5292 41.4973 17.3095 43.7354 16.4695C45.7349 15.6874 47.8636 15.269 50.0168 15.2349C53.6217 15.2349 56.1869 16.0263 57.7122 17.6092C59.2331 19.1844 60.0546 21.2844 59.9972 23.4502C59.9721 25.3951 59.5598 27.3165 58.7834 29.1072C57.9426 31.1119 56.8312 32.9974 55.4788 34.7137C54.1172 36.472 52.4987 38.0251 50.6752 39.3229C48.9622 40.5606 46.9849 41.4028 44.8915 41.7863C44.5856 41.8515 44.2729 41.8814 43.9599 41.8754C43.523 41.8754 43.3045 41.7567 43.3045 41.5103C43.3454 41.2477 43.4771 41.0067 43.6777 40.8277C43.9266 40.5546 44.1754 40.2964 44.4242 40.053C44.9219 39.5663 45.7149 38.669 46.8032 37.3611C47.8916 36.0532 49.0265 34.5326 50.2079 32.7993C51.3164 31.1934 52.2838 29.4986 53.0998 27.733C54.2205 25.4239 54.7799 23.4453 54.7779 21.797C54.7779 20.0954 54.1871 19.2446 53.0057 19.2446C52.1358 19.2446 50.9706 19.8065 49.51 20.9304C48.0494 22.0543 46.3248 23.9577 44.3362 26.6408C42.8433 28.5878 41.4272 30.6406 40.0879 32.7993C38.7487 34.958 37.5825 36.9654 36.5892 38.8213C35.5939 40.6773 34.816 42.1821 34.2557 43.3356C33.0371 46.1816 31.9785 49.0906 31.0846 52.0496C30.152 55.1224 29.6857 57.8441 29.6857 60.2145C29.6857 62.0388 30.0276 63.5139 30.7114 64.6397C31.3952 65.7656 32.5766 66.3285 34.2557 66.3285C35.9975 66.3285 37.7706 65.7052 39.5751 64.4587C41.5007 63.0982 43.2405 61.5023 44.7519 59.7099C46.3991 57.7954 47.9252 55.7843 49.3219 53.6879C50.5865 51.8152 51.7542 49.8816 52.8206 47.8944C53.2545 47.9568 53.8948 48.0191 54.7323 48.0784C55.5698 48.1378 55.9916 48.7166 55.9916 49.8117C55.948 50.6136 55.759 51.4015 55.4333 52.1386C54.8747 53.4458 54.2195 54.7116 53.473 55.9258C51.3864 59.2575 48.6684 62.1688 45.465 64.5032C42.1089 66.9983 38.7204 68.6712 35.2995 69.522C32.895 70.177 30.4126 70.5183 27.9166 70.5371Z" fill="#7784EE"/>
</svg>
