<svg width="42" height="42" viewBox="0 0 42 42" fill="none" xmlns="http://www.w3.org/2000/svg">
<path d="M35.5548 8.06559C32.8778 6.8373 30.0072 5.93234 27.0058 5.41404C26.9512 5.40404 26.8966 5.42903 26.8684 5.47903C26.4992 6.13566 26.0903 6.99228 25.8039 7.66558C22.5757 7.18229 19.3641 7.18229 16.2021 7.66558C15.9156 6.97731 15.4918 6.13566 15.121 5.47903C15.0928 5.4307 15.0382 5.4057 14.9836 5.41404C11.9838 5.93069 9.11323 6.83564 6.43464 8.06559C6.41145 8.07559 6.39157 8.09227 6.37838 8.11392C0.933435 16.2485 -0.558163 24.1832 0.173565 32.0195C0.176876 32.0579 0.198397 32.0946 0.228197 32.1179C3.82062 34.7561 7.30049 36.3577 10.7157 37.4193C10.7704 37.436 10.8283 37.416 10.8631 37.3709C11.671 36.2677 12.3911 35.1044 13.0086 33.8811C13.045 33.8095 13.0102 33.7245 12.9358 33.6961C11.7935 33.2628 10.7058 32.7345 9.65953 32.1345C9.57677 32.0862 9.57014 31.9678 9.64628 31.9112C9.86645 31.7462 10.0867 31.5745 10.2969 31.4012C10.335 31.3696 10.388 31.3629 10.4327 31.3829C17.3062 34.5211 24.7477 34.5211 31.5402 31.3829C31.5849 31.3612 31.6379 31.3679 31.6776 31.3995C31.8879 31.5729 32.1081 31.7462 32.3299 31.9112C32.406 31.9678 32.401 32.0862 32.3183 32.1345C31.272 32.7461 30.1843 33.2628 29.0404 33.6945C28.9659 33.7228 28.9328 33.8095 28.9692 33.8811C29.5999 35.1027 30.3201 36.266 31.1131 37.3693C31.1462 37.416 31.2058 37.436 31.2604 37.4193C34.6922 36.3577 38.1721 34.7561 41.7645 32.1179C41.796 32.0946 41.8158 32.0595 41.8192 32.0212C42.6949 22.9616 40.3524 15.092 35.6094 8.11557C35.5978 8.09227 35.578 8.07559 35.5548 8.06559ZM14.035 27.2481C11.9656 27.2481 10.2605 25.3482 10.2605 23.0149C10.2605 20.6817 11.9326 18.7818 14.035 18.7818C16.154 18.7818 17.8427 20.6984 17.8095 23.0149C17.8095 25.3482 16.1375 27.2481 14.035 27.2481ZM27.9908 27.2481C25.9215 27.2481 24.2163 25.3482 24.2163 23.0149C24.2163 20.6817 25.8883 18.7818 27.9908 18.7818C30.1099 18.7818 31.7984 20.6984 31.7654 23.0149C31.7654 25.3482 30.1099 27.2481 27.9908 27.2481Z" fill="#5865F2"/>
</svg>
