<svg width="42" height="42" viewBox="0 0 42 42" fill="none" xmlns="http://www.w3.org/2000/svg">
<path d="M21 0C24.8099 0 28.3236 0.962315 31.541 2.88694C34.7585 4.81157 37.306 7.4229 39.1836 10.7209C41.0612 14.019 42 17.6206 42 21.5259C42 26.2161 40.6647 30.4344 37.9941 34.1809C35.3236 37.9273 31.8737 40.52 27.6445 41.9588C27.1523 42.0522 26.7878 41.9868 26.5508 41.7626C26.3138 41.5384 26.1953 41.2581 26.1953 40.9217C26.1953 40.8657 26.1999 40.1509 26.209 38.7775C26.2181 37.4041 26.2227 36.1475 26.2227 35.0077C26.2227 33.1952 25.7487 31.8685 24.8008 31.0276C25.8398 30.9155 26.7741 30.7474 27.6035 30.5231C28.4329 30.2989 29.2897 29.9345 30.1738 29.43C31.0579 28.9255 31.7962 28.3042 32.3887 27.5661C32.9811 26.828 33.4642 25.847 33.8379 24.6231C34.2116 23.3992 34.3984 21.9931 34.3984 20.4048C34.3984 18.1812 33.6784 16.2566 32.2383 14.6309C32.9128 12.9305 32.8398 11.0246 32.0195 8.91309C31.5091 8.74492 30.7708 8.84769 29.8047 9.2214C28.8385 9.59512 28 10.0062 27.2891 10.4547L26.25 11.1273C24.5547 10.6415 22.8047 10.3986 21 10.3986C19.1953 10.3986 17.4453 10.6415 15.75 11.1273C15.4583 10.9218 15.071 10.6695 14.5879 10.3706C14.1048 10.0716 13.3438 9.7119 12.3047 9.29147C11.2656 8.87105 10.4909 8.74492 9.98047 8.91309C9.16016 11.0246 9.08724 12.9305 9.76172 14.6309C8.32161 16.2566 7.60156 18.1812 7.60156 20.4048C7.60156 21.9931 7.78841 23.3945 8.16211 24.6091C8.53581 25.8237 9.01432 26.8047 9.59766 27.5521C10.181 28.2995 10.9147 28.9255 11.7988 29.43C12.6829 29.9345 13.5397 30.2989 14.3691 30.5231C15.1986 30.7474 16.1328 30.9155 17.1719 31.0276C16.4609 31.7003 16.0143 32.6626 15.832 33.9146C15.4492 34.1014 15.0391 34.2416 14.6016 34.335C14.1641 34.4284 13.6445 34.4752 13.043 34.4752C12.4414 34.4752 11.8444 34.2743 11.252 33.8725C10.6595 33.4708 10.1536 32.8869 9.73438 32.1208C9.38802 31.5228 8.94596 31.037 8.4082 30.6633C7.87044 30.2896 7.41927 30.0653 7.05469 29.9906L6.50781 29.9065C6.125 29.9065 5.86068 29.9485 5.71484 30.0326C5.56901 30.1167 5.52344 30.2241 5.57812 30.3549C5.63281 30.4858 5.71484 30.6166 5.82422 30.7474C5.93359 30.8782 6.05208 30.9903 6.17969 31.0837L6.37109 31.2238C6.77214 31.4107 7.16862 31.7657 7.56055 32.2889C7.95247 32.8121 8.23958 33.2886 8.42188 33.7184L8.69531 34.363C8.93229 35.0731 9.33333 35.6477 9.89844 36.0868C10.4635 36.5259 11.0742 36.8062 11.7305 36.9277C12.3867 37.0491 13.0202 37.1145 13.6309 37.1239C14.2415 37.1332 14.7474 37.1005 15.1484 37.0258L15.7773 36.9136C15.7773 37.6237 15.7819 38.4505 15.791 39.3942C15.8001 40.3378 15.8047 40.847 15.8047 40.9217C15.8047 41.2581 15.6862 41.5384 15.4492 41.7626C15.2122 41.9868 14.8477 42.0522 14.3555 41.9588C10.1263 40.52 6.67643 37.9273 4.00586 34.1809C1.33529 30.4344 0 26.2161 0 21.5259C0 17.6206 0.938802 14.019 2.81641 10.7209C4.69401 7.4229 7.24154 4.81157 10.459 2.88694C13.6764 0.962315 17.1901 0 21 0Z" fill="black"/>
</svg>
