<svg width="42" height="42" viewBox="0 0 42 42" fill="none" xmlns="http://www.w3.org/2000/svg">
<path d="M42 8.05076C40.8096 9.79188 39.3706 11.2754 37.6827 12.5013C37.7005 12.75 37.7094 13.1231 37.7094 13.6206C37.7094 15.9302 37.3718 18.2354 36.6967 20.5362C36.0216 22.8369 34.9956 25.0444 33.6187 27.1586C32.2418 29.2728 30.6028 31.1428 28.7018 32.7684C26.8008 34.394 24.5089 35.691 21.8261 36.6593C19.1434 37.6275 16.2741 38.1117 13.2183 38.1117C8.40355 38.1117 3.99746 36.8236 0 34.2475C0.621827 34.3185 1.31472 34.3541 2.07868 34.3541C6.07614 34.3541 9.63832 33.1282 12.7652 30.6764C10.8997 30.6409 9.2297 30.0679 7.75508 28.9575C6.28046 27.8471 5.26777 26.4302 4.71701 24.7069C5.3033 24.7957 5.84518 24.8401 6.34264 24.8401C7.1066 24.8401 7.86168 24.7424 8.60787 24.547C6.61802 24.1383 4.97018 23.1478 3.66434 21.5755C2.3585 20.0032 1.70558 18.1777 1.70558 16.099V15.9924C2.91371 16.6675 4.21066 17.0317 5.59645 17.085C4.42386 16.3033 3.49112 15.2817 2.79822 14.0203C2.10533 12.7589 1.75888 11.3909 1.75888 9.91624C1.75888 8.35279 2.14975 6.90482 2.93147 5.57234C5.08122 8.21954 7.69734 10.3382 10.7798 11.9283C13.8623 13.5184 17.1624 14.4023 20.6802 14.58C20.5381 13.9048 20.467 13.2475 20.467 12.6079C20.467 10.2272 21.3065 8.19734 22.9854 6.5184C24.6643 4.83947 26.6942 4 29.0749 4C31.5622 4 33.6586 4.90609 35.3642 6.71827C37.3008 6.34518 39.1218 5.65228 40.8274 4.63959C40.1701 6.68274 38.9086 8.26396 37.0431 9.38325C38.6954 9.20558 40.3477 8.76142 42 8.05076Z" fill="#55ACEE"/>
</svg>
