<svg width="20" height="19" viewBox="0 0 20 19" fill="none" xmlns="http://www.w3.org/2000/svg">
<path fill-rule="evenodd" clip-rule="evenodd" d="M10.9104 0.586197C10.7481 0.229203 10.3921 0 9.99999 0C9.60785 0 9.25189 0.229203 9.08962 0.586197L6.83414 5.54826L0.923292 6.00295C0.543382 6.03217 0.213095 6.27475 0.0715485 6.62852C-0.069998 6.98228 0.0017975 7.38575 0.256695 7.66896L4.40082 12.2736L3.02985 17.7575C2.93513 18.1363 3.06963 18.5357 3.37426 18.78C3.67889 19.0244 4.0979 19.0691 4.4472 18.8944L9.99999 16.118L15.5528 18.8944C15.9021 19.0691 16.3211 19.0244 16.6257 18.78C16.9303 18.5357 17.0648 18.1363 16.9701 17.7575L15.5992 12.2736L19.7433 7.66896C19.9982 7.38575 20.07 6.98228 19.9284 6.62852C19.7869 6.27475 19.4566 6.03217 19.0767 6.00295L13.1658 5.54826L10.9104 0.586197Z" fill="#C2C6D0"/>
</svg>
