<svg width="42" height="42" fill="none" xmlns="http://www.w3.org/2000/svg"><path d="M35.555 8.066a34.636 34.636 0 0 0-8.55-2.652.13.13 0 0 0-.137.065c-.369.657-.778 1.513-1.064 2.187a31.974 31.974 0 0 0-9.602 0c-.286-.689-.71-1.53-1.081-2.187a.135.135 0 0 0-.137-.065c-3 .517-5.87 1.422-8.55 2.652a.122.122 0 0 0-.056.048C.933 16.248-.558 24.184.174 32.019a.144.144 0 0 0 .054.099c3.593 2.638 7.072 4.24 10.488 5.301a.136.136 0 0 0 .147-.048 24.893 24.893 0 0 0 2.146-3.49.133.133 0 0 0-.073-.185 22.929 22.929 0 0 1-3.276-1.561.135.135 0 0 1-.014-.224c.22-.165.44-.337.65-.51a.13.13 0 0 1 .137-.018c6.873 3.138 14.315 3.138 21.107 0a.13.13 0 0 1 .138.017c.21.173.43.346.652.511a.135.135 0 0 1-.012.224 21.53 21.53 0 0 1-3.278 1.56.134.134 0 0 0-.07.186 27.947 27.947 0 0 0 2.143 3.488.133.133 0 0 0 .147.05c3.432-1.061 6.912-2.663 10.504-5.301a.135.135 0 0 0 .055-.097c.876-9.06-1.467-16.929-6.21-23.905a.107.107 0 0 0-.054-.05Zm-21.52 19.182c-2.07 0-3.774-1.9-3.774-4.233 0-2.333 1.672-4.233 3.774-4.233 2.119 0 3.808 1.916 3.774 4.233 0 2.333-1.672 4.233-3.774 4.233Zm13.956 0c-2.07 0-3.775-1.9-3.775-4.233 0-2.333 1.672-4.233 3.775-4.233 2.119 0 3.807 1.916 3.774 4.233 0 2.333-1.655 4.233-3.774 4.233Z" fill="#5865F2"/></svg>