<svg width="42" height="42" fill="none" xmlns="http://www.w3.org/2000/svg"><path d="M21 0c3.81 0 7.324.962 10.541 2.887 3.217 1.925 5.765 4.536 7.643 7.834C41.06 14.019 42 17.62 42 21.526c0 4.69-1.335 8.908-4.006 12.655-2.67 3.746-6.12 6.339-10.35 7.778-.492.093-.856.028-1.093-.196a1.11 1.11 0 0 1-.356-.841l.014-2.144c.01-1.374.014-2.63.014-3.77 0-1.813-.474-3.14-1.422-3.98a18.303 18.303 0 0 0 2.803-.505c.829-.224 1.686-.588 2.57-1.093a7.688 7.688 0 0 0 2.215-1.864c.592-.738 1.075-1.719 1.449-2.943.374-1.224.56-2.63.56-4.218 0-2.224-.72-4.148-2.16-5.774.675-1.7.602-3.606-.218-5.718-.51-.168-1.25-.065-2.215.308-.966.374-1.805.785-2.516 1.234l-1.039.672A18.964 18.964 0 0 0 21 10.4c-1.805 0-3.555.243-5.25.728a24.179 24.179 0 0 0-1.162-.756c-.483-.3-1.244-.66-2.283-1.08-1.04-.42-1.814-.546-2.325-.378-.82 2.112-.893 4.018-.218 5.718-1.44 1.626-2.16 3.55-2.16 5.774 0 1.588.186 2.99.56 4.204.374 1.215.852 2.196 1.436 2.943a7.412 7.412 0 0 0 2.2 1.878c.885.505 1.742.869 2.571 1.093.83.224 1.764.393 2.803.505-.711.672-1.158 1.635-1.34 2.887a5.332 5.332 0 0 1-1.23.42c-.438.093-.957.14-1.559.14s-1.199-.2-1.791-.602c-.593-.402-1.098-.986-1.518-1.752a4.479 4.479 0 0 0-1.326-1.458c-.538-.373-.989-.598-1.353-.672l-.547-.084c-.383 0-.647.041-.793.126-.146.084-.192.191-.137.322.055.13.137.262.246.392.11.131.228.243.356.337l.191.14c.401.187.798.542 1.19 1.065.391.523.679 1 .86 1.43l.274.644c.237.71.638 1.285 1.203 1.724.566.439 1.176.72 1.832.84.657.122 1.29.188 1.9.197.611.01 1.117-.024 1.518-.098l.63-.112c0 .71.004 1.536.013 2.48.01.944.014 1.453.014 1.528 0 .336-.119.616-.356.84-.237.225-.601.29-1.094.197-4.229-1.439-7.679-4.032-10.35-7.778C1.336 30.434 0 26.216 0 21.526c0-3.905.939-7.507 2.816-10.805 1.878-3.298 4.426-5.91 7.643-7.834C13.676.962 17.19 0 21 0Z" fill="#000"/></svg>