<svg width="42" height="42" fill="none" xmlns="http://www.w3.org/2000/svg"><path d="M5.865 37.734 2.502 0h36.996l-3.363 37.734L20.959 42 5.865 37.734Z" fill="#F1DD3F"/><path d="m23.412 7.629-1.198 4.594h5.307l-.41 4.757H20.96l-1.222 4.676H26.7l-.574 5.989-5.168 1.394-2.953-.796-1.173 4.496 4.126 1.14h.082l9.516-2.625 2.05-23.625h-9.195ZM15.791 27.645l-.517-5.989h2.092l1.222-4.675h-3.7l-.41-4.758h5.357l1.206-4.594H9.393l2.05 23.625 3.175.878 1.173-4.487Z" fill="#323330"/><path opacity=".3" d="m21.041 38.719 12.223-3.364 2.87-32.32H21.042V38.72Z" fill="#fff"/></svg>