<svg width="42" height="42" fill="none" xmlns="http://www.w3.org/2000/svg"><path d="M32.119 7.498a2.463 2.463 0 1 0 0 4.926 2.463 2.463 0 0 0 0-4.926Z" fill="url('#paint0_linear_198_88')"/><path d="M21.165 10.656A10.344 10.344 0 1 0 31.506 21a10.356 10.356 0 0 0-10.34-10.344Zm0 16.967a6.625 6.625 0 1 1-.005-13.25 6.625 6.625 0 0 1 .005 13.25Z" fill="url('#paint1_linear_198_88')"/><path d="M29.384 41.998h-16.77A12.626 12.626 0 0 1 0 29.384v-16.77A12.627 12.627 0 0 1 12.614 0h16.77A12.629 12.629 0 0 1 42 12.614v16.77a12.629 12.629 0 0 1-12.616 12.614ZM12.614 3.95a8.671 8.671 0 0 0-8.664 8.664v16.77a8.671 8.671 0 0 0 8.664 8.655h16.77a8.671 8.671 0 0 0 8.663-8.663V12.614a8.67 8.67 0 0 0-8.663-8.664h-16.77Z" fill="url('#paint2_linear_198_88')"/><defs><linearGradient id="paint0_linear_198_88" x1="3.405" y1="38.957" x2="40.41" y2="1.588" gradientUnits="userSpaceOnUse"><stop stop-color="#FFE185"/><stop offset=".21" stop-color="#FFBB36"/><stop offset=".38" stop-color="#FF5176"/><stop offset=".52" stop-color="#F63395"/><stop offset=".74" stop-color="#A436D2"/><stop offset="1" stop-color="#5F4EED"/></linearGradient><linearGradient id="paint1_linear_198_88" x1="11.111" y1="48.638" x2="30.224" y2="-3.87" gradientUnits="userSpaceOnUse"><stop stop-color="#FFE185"/><stop offset=".21" stop-color="#FFBB36"/><stop offset=".38" stop-color="#FF5176"/><stop offset=".52" stop-color="#F63395"/><stop offset=".74" stop-color="#A436D2"/><stop offset="1" stop-color="#5F4EED"/></linearGradient><linearGradient id="paint2_linear_198_88" x1="11.439" y1="47.266" x2="29.678" y2="-2.845" gradientUnits="userSpaceOnUse"><stop stop-color="#FFE185"/><stop offset=".21" stop-color="#FFBB36"/><stop offset=".38" stop-color="#FF5176"/><stop offset=".52" stop-color="#F63395"/><stop offset=".74" stop-color="#A436D2"/><stop offset="1" stop-color="#5F4EED"/></linearGradient></defs></svg>