<svg width="42" height="42" viewBox="0 0 42 42" fill="none" xmlns="http://www.w3.org/2000/svg">
<path d="M32.1188 7.49838C31.6317 7.49838 31.1555 7.64282 30.7505 7.91344C30.3455 8.18405 30.0299 8.56869 29.8435 9.01871C29.6571 9.46872 29.6083 9.96391 29.7033 10.4416C29.7984 10.9194 30.0329 11.3582 30.3773 11.7026C30.7218 12.0471 31.1606 12.2816 31.6383 12.3766C32.116 12.4717 32.6113 12.4229 33.0613 12.2365C33.5113 12.0501 33.8959 11.7344 34.1665 11.3294C34.4372 10.9244 34.5816 10.4483 34.5816 9.96117C34.5816 9.308 34.3221 8.68158 33.8603 8.21972C33.3984 7.75785 32.772 7.49838 32.1188 7.49838Z" fill="url('#paint0_linear_198_88')"></path>
<path d="M21.1651 10.6563C19.1192 10.6558 17.1191 11.262 15.4177 12.3983C13.7164 13.5346 12.3902 15.1499 11.6069 17.0399C10.8237 18.93 10.6185 21.0098 11.0173 23.0165C11.4161 25.0231 12.4011 26.8664 13.8476 28.3133C15.2941 29.7601 17.1371 30.7455 19.1437 31.1448C21.1502 31.5442 23.2302 31.3395 25.1204 30.5566C27.0106 29.7738 28.6262 28.448 29.7629 26.747C30.8996 25.0459 31.5063 23.0459 31.5063 21C31.503 18.2582 30.4125 15.6295 28.4739 13.6905C26.5354 11.7514 23.907 10.6603 21.1651 10.6563ZM21.1651 27.6233C19.8544 27.6238 18.573 27.2356 17.4831 26.5077C16.3931 25.7799 15.5434 24.7451 15.0416 23.5343C14.5398 22.3235 14.4084 20.991 14.664 19.7055C14.9196 18.42 15.5507 17.2392 16.4774 16.3124C17.4042 15.3856 18.5851 14.7545 19.8706 14.4989C21.1561 14.2434 22.4885 14.3748 23.6993 14.8766C24.9101 15.3784 25.9449 16.228 26.6728 17.318C27.4006 18.408 27.7889 19.6894 27.7884 21C27.7864 22.756 27.088 24.4395 25.8463 25.6812C24.6046 26.9229 22.9211 27.6213 21.1651 27.6233Z" fill="url('#paint1_linear_198_88')"></path>
<path d="M29.3835 41.9975H12.614C9.26958 41.9942 6.06309 40.6642 3.69823 38.2993C1.33336 35.9344 0.00330968 32.7279 0 29.3835V12.614C0.00330968 9.26958 1.33336 6.06308 3.69823 3.69821C6.06309 1.33334 9.26958 0.00330968 12.614 0H29.3835C32.7282 0.00330853 35.9349 1.33326 38.3002 3.69806C40.6655 6.06285 41.996 9.26935 42 12.614V29.3835C41.996 32.7282 40.6655 35.9347 38.3002 38.2994C35.9349 40.6642 32.7282 41.9942 29.3835 41.9975ZM12.614 3.95047C10.3169 3.95246 8.11445 4.86586 6.49015 6.49015C4.86586 8.11445 3.95247 10.3169 3.95048 12.614V29.3835C3.95445 31.6793 4.86873 33.8798 6.49281 35.5025C8.11689 37.1252 10.3182 38.0376 12.614 38.0395H29.3835C31.6806 38.0375 33.883 37.1241 35.5073 35.4998C37.1316 33.8755 38.0451 31.6731 38.047 29.376V12.614C38.0451 10.3169 37.1316 8.11445 35.5073 6.49015C33.883 4.86586 31.6806 3.95246 29.3835 3.95047H12.614Z" fill="url('#paint2_linear_198_88')"></path>
<defs>
<linearGradient id="paint0_linear_198_88" x1="3.40538" y1="38.9571" x2="40.4098" y2="1.58767" gradientUnits="userSpaceOnUse">
<stop stop-color="#FFE185"></stop>
<stop offset="0.21" stop-color="#FFBB36"></stop>
<stop offset="0.38" stop-color="#FF5176"></stop>
<stop offset="0.52" stop-color="#F63395"></stop>
<stop offset="0.74" stop-color="#A436D2"></stop>
<stop offset="1" stop-color="#5F4EED"></stop>
</linearGradient>
<linearGradient id="paint1_linear_198_88" x1="11.1114" y1="48.6383" x2="30.2237" y2="-3.87042" gradientUnits="userSpaceOnUse">
<stop stop-color="#FFE185"></stop>
<stop offset="0.21" stop-color="#FFBB36"></stop>
<stop offset="0.38" stop-color="#FF5176"></stop>
<stop offset="0.52" stop-color="#F63395"></stop>
<stop offset="0.74" stop-color="#A436D2"></stop>
<stop offset="1" stop-color="#5F4EED"></stop>
</linearGradient>
<linearGradient id="paint2_linear_198_88" x1="11.4389" y1="47.2656" x2="29.6785" y2="-2.84534" gradientUnits="userSpaceOnUse">
<stop stop-color="#FFE185"></stop>
<stop offset="0.21" stop-color="#FFBB36"></stop>
<stop offset="0.38" stop-color="#FF5176"></stop>
<stop offset="0.52" stop-color="#F63395"></stop>
<stop offset="0.74" stop-color="#A436D2"></stop>
<stop offset="1" stop-color="#5F4EED"></stop>
</linearGradient>
</defs>
</svg>
