<svg width="60" height="71" fill="none" xmlns="http://www.w3.org/2000/svg"><path d="M10.73 57.775a7.844 7.844 0 0 0-2.019-.698c-.861-.195-1.63-.4-2.303-.62a5.31 5.31 0 0 1-1.729-1.115 5.178 5.178 0 0 1-1.16-1.678 10.141 10.141 0 0 1-.73-4.698c.207-2.801.782-5.564 1.71-8.221a85.33 85.33 0 0 1 3.77-9.447c1.509-3.243 3.09-6.346 4.742-9.308a259.65 259.65 0 0 1 4.573-7.9c1.396-2.308 2.467-4.02 3.214-5.138a60.98 60.98 0 0 0-6.737 1.077 27.879 27.879 0 0 0-6.224 2.015c-1.723.825-2.62 1.876-2.688 3.152-.065 1.217.65 2.441 2.142 3.672.474.45.701.858.683 1.223a.926.926 0 0 1-.25.654.968.968 0 0 1-.642.304 2.851 2.851 0 0 1-.844.05 4.97 4.97 0 0 1-3.146-1.439 9.421 9.421 0 0 1-2.334-3.544 10.66 10.66 0 0 1-.74-4.558c.121-2.31 1.142-4.542 3.061-6.7C5 2.703 8.25 1.319 12.826.705c1.133-.184 3.352-.33 6.658-.44C22.789.156 26.367.2 30.217.398c3.315.16 6.618.51 9.892 1.048 3.166.516 5.767 1.287 7.802 2.312 2.035 1.025 3.007 2.384 2.916 4.078-.024.424-.082.94-.176 1.543a14.72 14.72 0 0 0-.17 1.454v.181a.416.416 0 0 1-.072.274.433.433 0 0 1-.231.169c-.192.05-.34-.048-.453-.297-.285-.5-1.149-.941-2.591-1.32a38.279 38.279 0 0 0-5.462-.915 88.542 88.542 0 0 0-7.131-.463c-1.608 2.177-3.479 4.883-5.61 8.12a198.509 198.509 0 0 0-6.498 10.623 175.317 175.317 0 0 0-5.41 10.462c-1.681 3.538-3.052 6.788-4.112 9.75-1.062 2.968-1.64 5.36-1.736 7.176-.058 1.092.086 1.892.434 2.398a.718.718 0 0 1 .158.555c-.021.437-.37.526-1.038.229Z" fill="#7784EE"/><path d="M27.917 70.537c-3.733 0-6.454-.958-8.163-2.873-1.71-1.915-2.564-4.455-2.564-7.619.013-2.63.422-5.242 1.214-7.755a66.176 66.176 0 0 1 2.986-8.028 95.203 95.203 0 0 1 4.566-9.044 86.097 86.097 0 0 1 5.599-8.574 37.817 37.817 0 0 1 6.069-6.571 20.461 20.461 0 0 1 6.111-3.604c2-.782 4.129-1.2 6.282-1.234 3.605 0 6.17.791 7.695 2.374a8.098 8.098 0 0 1 2.285 5.841 14.693 14.693 0 0 1-1.214 5.657 24.153 24.153 0 0 1-3.304 5.607 22.778 22.778 0 0 1-4.804 4.609 14.265 14.265 0 0 1-5.783 2.463 4.093 4.093 0 0 1-.932.09c-.437 0-.656-.12-.656-.366.041-.262.173-.503.374-.682.249-.273.497-.532.746-.775.498-.487 1.29-1.384 2.38-2.692 1.088-1.308 2.222-2.828 3.404-4.562a34.107 34.107 0 0 0 2.892-5.066c1.12-2.31 1.68-4.288 1.678-5.936 0-1.702-.59-2.552-1.772-2.552-.87 0-2.035.561-3.496 1.685-1.46 1.124-3.185 3.028-5.174 5.71a75.69 75.69 0 0 0-4.248 6.16 109.796 109.796 0 0 0-3.499 6.021 132.85 132.85 0 0 0-2.333 4.515 83.444 83.444 0 0 0-3.171 8.714c-.933 3.072-1.4 5.794-1.4 8.165 0 1.824.343 3.299 1.026 4.425.684 1.126 1.866 1.689 3.545 1.689 1.742 0 3.515-.624 5.32-1.87a27.608 27.608 0 0 0 5.176-4.75 61.607 61.607 0 0 0 4.57-6.021 66.76 66.76 0 0 0 3.499-5.794 28.73 28.73 0 0 0 1.911.184c.838.06 1.26.639 1.26 1.734a6.649 6.649 0 0 1-.559 2.327 28.958 28.958 0 0 1-1.96 3.787 30.944 30.944 0 0 1-8.008 8.577c-3.356 2.495-6.745 4.168-10.166 5.019a28.923 28.923 0 0 1-7.382 1.015Z" fill="#7784EE"/></svg>