<svg width="100" height="100" fill="none" xmlns="http://www.w3.org/2000/svg"><rect width="100" height="100" rx="10" fill="url('#paint0_linear_189_292')"/><path d="M34.7 67.677a6.362 6.362 0 0 0-1.637-.566 21.33 21.33 0 0 1-1.867-.502c-.524-.209-1-.516-1.402-.904a4.197 4.197 0 0 1-.94-1.36 8.223 8.223 0 0 1-.593-3.81 26.024 26.024 0 0 1 1.387-6.666 69.178 69.178 0 0 1 3.056-7.66 115.415 115.415 0 0 1 3.846-7.547 210.265 210.265 0 0 1 3.708-6.406c1.131-1.87 2-3.259 2.605-4.165-1.836.189-3.66.48-5.462.873a22.604 22.604 0 0 0-5.046 1.634c-1.398.67-2.124 1.521-2.18 2.556-.053.986.526 1.979 1.737 2.977.384.365.568.696.553.991a.75.75 0 0 1-.202.53.784.784 0 0 1-.52.247 2.307 2.307 0 0 1-.685.041 4.029 4.029 0 0 1-2.551-1.167 7.64 7.64 0 0 1-1.892-2.873 8.644 8.644 0 0 1-.6-3.696c.098-1.873.925-3.683 2.482-5.432 1.556-1.748 4.19-2.871 7.903-3.369.918-.15 2.718-.268 5.398-.356 2.68-.088 5.58-.052 8.702.108 2.688.13 5.367.414 8.021.85 2.567.419 4.675 1.043 6.326 1.874 1.65.831 2.438 1.934 2.364 3.307-.02.344-.066.763-.143 1.251-.076.489-.123.883-.137 1.18v.146a.338.338 0 0 1-.059.222.351.351 0 0 1-.188.137c-.154.04-.275-.039-.366-.24-.231-.407-.932-.764-2.101-1.072a31.051 31.051 0 0 0-4.429-.741 71.825 71.825 0 0 0-5.782-.375c-1.304 1.764-2.82 3.96-4.55 6.584a161.062 161.062 0 0 0-5.267 8.612 142.23 142.23 0 0 0-4.387 8.483c-1.363 2.869-2.474 5.504-3.334 7.906-.86 2.406-1.33 4.345-1.407 5.818-.047.886.07 1.534.352 1.945a.582.582 0 0 1 .128.45c-.017.353-.3.426-.841.185Z" fill="#fff"/><path d="M48.635 78.025c-3.026 0-5.232-.777-6.618-2.33-1.386-1.553-2.08-3.612-2.08-6.177.011-2.132.343-4.25.985-6.288a53.66 53.66 0 0 1 2.42-6.51 77.163 77.163 0 0 1 3.704-7.332 69.807 69.807 0 0 1 4.54-6.953 30.658 30.658 0 0 1 4.92-5.327 16.593 16.593 0 0 1 4.955-2.922 14.62 14.62 0 0 1 5.093-1c2.923 0 5.003.64 6.24 1.924a6.566 6.566 0 0 1 1.852 4.736 11.912 11.912 0 0 1-.984 4.587 19.585 19.585 0 0 1-2.68 4.546 18.468 18.468 0 0 1-3.894 3.737 11.566 11.566 0 0 1-4.69 1.997 3.32 3.32 0 0 1-.755.072c-.354 0-.531-.096-.531-.295a.935.935 0 0 1 .302-.554c.202-.221.404-.43.606-.628.403-.395 1.046-1.122 1.928-2.183a48.55 48.55 0 0 0 2.761-3.699 27.664 27.664 0 0 0 2.345-4.107c.909-1.873 1.362-3.477 1.36-4.813 0-1.38-.478-2.07-1.436-2.07-.706 0-1.65.456-2.835 1.367-1.184.911-2.582 2.455-4.195 4.63a61.347 61.347 0 0 0-3.444 4.993 89.058 89.058 0 0 0-2.837 4.883 107.833 107.833 0 0 0-1.892 3.66 67.665 67.665 0 0 0-2.571 7.066c-.756 2.491-1.135 4.698-1.135 6.62 0 1.48.278 2.675.832 3.588.554.913 1.512 1.37 2.874 1.37 1.412 0 2.85-.506 4.313-1.517a22.39 22.39 0 0 0 4.197-3.85 49.95 49.95 0 0 0 3.706-4.883 54.111 54.111 0 0 0 2.837-4.697c.351.05.87.1 1.55.149.679.048 1.02.517 1.02 1.405a5.392 5.392 0 0 1-.452 1.887 23.498 23.498 0 0 1-1.59 3.07 25.092 25.092 0 0 1-6.492 6.955c-2.722 2.023-5.47 3.38-8.243 4.07-1.95.53-3.962.808-5.986.823Z" fill="#fff"/><defs><linearGradient id="paint0_linear_189_292" x1="50" y1="0" x2="50" y2="100" gradientUnits="userSpaceOnUse"><stop stop-color="#7784EE"/><stop offset="1" stop-color="#5F6DDD"/></linearGradient></defs></svg>