<svg width="42" height="42" fill="none" xmlns="http://www.w3.org/2000/svg"><path d="M42 8.05a18.037 18.037 0 0 1-4.317 4.451c.017.249.026.622.026 1.12 0 2.31-.337 4.614-1.012 6.915-.675 2.3-1.701 4.508-3.078 6.623a26.033 26.033 0 0 1-4.917 5.61c-1.901 1.625-4.193 2.922-6.876 3.89-2.683.968-5.552 1.453-8.608 1.453-4.814 0-9.22-1.288-13.218-3.864.622.07 1.315.106 2.079.106 3.997 0 7.56-1.226 10.686-3.678-1.865-.035-3.535-.608-5.01-1.718-1.475-1.11-2.487-2.528-3.038-4.251.586.089 1.128.133 1.626.133.764 0 1.519-.098 2.265-.293-1.99-.409-3.638-1.4-4.944-2.971-1.306-1.573-1.958-3.398-1.958-5.477v-.107a8.54 8.54 0 0 0 3.89 1.093 8.598 8.598 0 0 1-2.798-3.065 8.387 8.387 0 0 1-1.04-4.104c0-1.563.392-3.011 1.173-4.344 2.15 2.648 4.766 4.766 7.849 6.356 3.082 1.59 6.382 2.474 9.9 2.652a9.564 9.564 0 0 1-.213-1.972c0-2.38.84-4.41 2.518-6.09C24.665 4.84 26.695 4 29.075 4c2.487 0 4.584.906 6.29 2.718a16.878 16.878 0 0 0 5.462-2.078c-.657 2.043-1.918 3.624-3.784 4.743 1.652-.177 3.305-.622 4.957-1.332Z" fill="#55ACEE"/></svg>