<svg width="42" height="42" viewBox="0 0 42 42" fill="none" xmlns="http://www.w3.org/2000/svg">
<path d="M28 26.6V29.5531L29.575 31.325M15.75 19.25H7M35 15.75V12.25C35 10.317 33.433 8.75 31.5 8.75H10.5C8.567 8.75 7 10.317 7 12.25V33.25C7 35.183 8.567 36.75 10.5 36.75H15.75M26.25 5.25V12.25M15.75 5.25V12.25M35.875 29.75C35.875 34.0992 32.3492 37.625 28 37.625C23.6508 37.625 20.125 34.0992 20.125 29.75C20.125 25.4008 23.6508 21.875 28 21.875C32.3492 21.875 35.875 25.4008 35.875 29.75Z" stroke="#727D9A" stroke-width="2" stroke-linecap="round" stroke-linejoin="round"/>
</svg>
