<svg width="42" height="42" viewBox="0 0 42 42" fill="none" xmlns="http://www.w3.org/2000/svg">
<path d="M5.86523 37.7344L2.50195 0H39.498L36.1348 37.7344L20.959 42L5.86523 37.7344Z" fill="#F1DD3F"/>
<path d="M23.4117 7.62891L22.214 12.2227H27.5214L27.1113 16.9805H20.9589L19.7367 21.6562H26.7011L26.1269 27.6445L20.9589 29.0391L18.0058 28.2434L16.8328 32.7387L20.9589 33.8789H21.041L30.5566 31.2539L32.6074 7.62891H23.4117Z" fill="#323330"/>
<path d="M15.791 27.6445L15.2742 21.6562H17.366L18.5883 16.9805H14.8887L14.4785 12.2227H19.8352L21.041 7.62891H9.39258L11.4434 31.2539L14.618 32.1316L15.791 27.6445Z" fill="#323330"/>
<path opacity="0.3" d="M21.041 38.7188L33.2637 35.3555L36.1348 3.03516H21.041V38.7188Z" fill="white"/>
</svg>
